<?xml version="1.0" encoding="UTF-8" standalone="no"?>
<svg
   height="1024"
   width="1024"
   version="1.1"
   id="svg8"
   sodipodi:docname="logo.svg"
   xml:space="preserve"
   inkscape:version="1.3.2 (091e20ef0f, 2023-11-25, custom)"
   xmlns:inkscape="http://www.inkscape.org/namespaces/inkscape"
   xmlns:sodipodi="http://sodipodi.sourceforge.net/DTD/sodipodi-0.dtd"
   xmlns="http://www.w3.org/2000/svg"
   xmlns:svg="http://www.w3.org/2000/svg"><defs
     id="defs8" /><sodipodi:namedview
     id="namedview8"
     pagecolor="#ffffff"
     bordercolor="#000000"
     borderopacity="0.25"
     inkscape:showpageshadow="2"
     inkscape:pageopacity="0.0"
     inkscape:pagecheckerboard="0"
     inkscape:deskcolor="#d1d1d1"
     inkscape:zoom="0.80378154"
     inkscape:cx="98.285413"
     inkscape:cy="459.07997"
     inkscape:window-width="3440"
     inkscape:window-height="1368"
     inkscape:window-x="0"
     inkscape:window-y="0"
     inkscape:window-maximized="1"
     inkscape:current-layer="svg8" /><path
     d="m0 0s-.325 1.994-.515 1.976l-36.182-3.491c-2.879-.278-5.115-2.574-5.317-5.459l-.994-14.247-27.992-1.997-1.904 12.912c-.424 2.872-2.932 5.037-5.835 5.037h-38.188c-2.902 0-5.41-2.165-5.834-5.037l-1.905-12.912-27.992 1.997-.994 14.247c-.202 2.886-2.438 5.182-5.317 5.46l-36.2 3.49c-.187.018-.324-1.978-.511-1.978l-.049-7.83 30.658-4.944 1.004-14.374c.203-2.91 2.551-5.263 5.463-5.472l38.551-2.75c.146-.01.29-.016.434-.016 2.897 0 5.401 2.166 5.825 5.038l1.959 13.286h28.005l1.959-13.286c.423-2.871 2.93-5.037 5.831-5.037.142 0 .284.005.423.015l38.556 2.75c2.911.209 5.26 2.562 5.463 5.472l1.003 14.374 30.645 4.966z"
     fill="#fff"
     transform="matrix(4.162611 0 0 -4.162611 919.24059 673.152141)"
     id="path1" /><path
     d="m 0,0 v -47.514 -6.035 -5.492 c 0.108,-0.001 0.216,-0.005 0.323,-0.015 l 36.196,-3.49 c 1.896,-0.183 3.382,-1.709 3.514,-3.609 l 1.116,-15.978 31.574,-2.253 2.175,14.747 c 0.282,1.912 1.922,3.329 3.856,3.329 h 38.188 c 1.933,0 3.573,-1.417 3.855,-3.329 l 2.175,-14.747 31.575,2.253 1.115,15.978 c 0.133,1.9 1.618,3.425 3.514,3.609 l 36.182,3.49 c 0.107,0.01 0.214,0.014 0.322,0.015 v 4.711 l 0.015,0.005 V 0 c 5.09692,6.4164715 9.92323,13.494208 13.621,19.449 -5.651,9.62 -12.575,18.217 -19.976,26.182 -6.864,-3.455 -13.531,-7.369 -19.828,-11.534 -3.151,3.132 -6.7,5.694 -10.186,8.372 -3.425,2.751 -7.285,4.768 -10.946,7.118 1.09,8.117 1.629,16.108 1.846,24.448 -9.446,4.754 -19.519,7.906 -29.708,10.17 -4.068,-6.837 -7.788,-14.241 -11.028,-21.479 -3.842,0.642 -7.702,0.88 -11.567,0.926 v 0.006 c -0.027,0 -0.052,-0.006 -0.075,-0.006 -0.024,0 -0.049,0.006 -0.073,0.006 V 63.652 C 93.903,63.606 90.046,63.368 86.203,62.726 82.965,69.964 79.247,77.368 75.173,84.205 64.989,81.941 54.915,78.789 45.47,74.035 45.686,65.695 46.225,57.704 47.318,49.587 43.65,47.237 39.795,45.22 36.369,42.469 32.888,39.791 29.333,37.229 26.181,34.097 19.884,38.262 13.219,42.176 6.353,45.631 -1.048,37.666 -7.968,29.069 -13.621,19.449 -9.1783421,12.475308 -4.4130298,5.4661124 0,0 Z"
     fill="#478cbf"
     transform="matrix(4.162611,0,0,-4.162611,104.69892,427.38725)"
     id="path2"
     style="display:inline" /><path
     d="m 0,0 -1.121,-16.063 c -0.135,-1.936 -1.675,-3.477 -3.611,-3.616 l -38.555,-2.751 c -0.094,-0.007 -0.188,-0.01 -0.281,-0.01 -1.916,0 -3.569,1.406 -3.852,3.33 l -2.211,14.994 H -81.09 l -2.211,-14.994 c -0.297,-2.018 -2.101,-3.469 -4.133,-3.32 l -38.555,2.751 c -1.936,0.139 -3.476,1.68 -3.611,3.616 L -130.721,0 -163.268,3.138 c 0.015,-3.498 0.06,-7.33 0.06,-8.093 0,-34.374 43.605,-50.896 97.781,-51.086 h 0.066 0.067 c 54.176,0.19 97.766,16.712 97.766,51.086 0,0.777 0.047,4.593 0.063,8.093 z"
     fill="#478cbf"
     transform="matrix(4.162611,0,0,-4.162611,784.07144,718.72312)"
     id="path3"
     style="display:inline" /><path
     d="m 0,0 c 0,-12.052 -9.765,-21.815 -21.813,-21.815 -12.042,0 -21.81,9.763 -21.81,21.815 0,12.044 9.768,21.802 21.81,21.802 C -9.765,21.802 0,12.044 0,0"
     fill="#ffffff"
     transform="matrix(4.162611,0,0,-4.162611,389.21484,527.15132)"
     id="path4"
     style="display:inline" /><path
     d="m 0,0 c 0,-7.994 -6.479,-14.473 -14.479,-14.473 -7.996,0 -14.479,6.479 -14.479,14.473 0,7.994 6.483,14.479 14.479,14.479 C -6.479,14.479 0,7.994 0,0"
     fill="#414042"
     id="path5"
     transform="matrix(4.162611,0,0,-4.162611,367.36686,532.53707)"
     style="display:none" /><path
     d="m 0,0 c -3.878,0 -7.021,2.858 -7.021,6.381 v 20.081 c 0,3.52 3.143,6.381 7.021,6.381 3.878,0 7.028,-2.861 7.028,-6.381 V 6.381 C 7.028,2.858 3.878,0 0,0"
     fill="#ffffff"
     transform="matrix(4.162611,0,0,-4.162611,511.99336,626.21982)"
     id="path6"
     style="display:inline" /><path
     d="m 0,0 c 0,-12.052 9.765,-21.815 21.815,-21.815 12.041,0 21.808,9.763 21.808,21.815 0,12.044 -9.767,21.802 -21.808,21.802 C 9.765,21.802 0,12.044 0,0"
     fill="#ffffff"
     transform="matrix(4.162611,0,0,-4.162611,634.78706,527.15132)"
     id="path7"
     style="display:inline" /><path
     d="m 0,0 c 0,-7.994 6.477,-14.473 14.471,-14.473 8.002,0 14.479,6.479 14.479,14.473 0,7.994 -6.477,14.479 -14.479,14.479 C 6.477,14.479 0,7.994 0,0"
     fill="#414042"
     id="path8"
     transform="matrix(4.162611,0,0,-4.162611,656.64056,532.53707)"
     inkscape:label="path8"
     style="display:none" /><g
     inkscape:label="DasLogo"
     id="g1"
     transform="matrix(1.7611163,0,0,1.7611163,573.27277,387.55005)"
     style="display:none"><path
       style="fill:#000000"
       d="m 31.27301,154.7178 c 0.405203,-0.528 4.452395,-5.064 8.993758,-10.08 15.022992,-16.59311 21.406225,-24.19102 26.670933,-31.74619 10.962348,-15.731631 11.558803,-23.964531 1.874212,-25.869858 -4.154997,-0.817445 -12.400651,0.07102 -21.148333,2.278726 -2.013071,0.50805 -3.699442,0.884416 -3.74749,0.836368 C 43.86804,90.088796 49.7631,84.220115 57.016219,77.095328 68.002264,66.303665 73.221882,61.500504 88.283709,48.322568 110.8672,28.563753 129.70468,12.045544 131.13424,10.747786 c 2.19385,-1.9915871 0.0614,0.500298 -8.49305,9.924614 -9.84741,10.848735 -14.04552,15.659273 -18.59623,21.309065 -8.880179,11.02493 -14.404928,19.763197 -16.603496,26.26108 -1.187659,3.510136 -1.272748,7.404159 -0.205494,9.404302 1.008063,1.889213 2.780465,3.223994 5.367739,4.042398 1.963242,0.621011 2.912122,0.705709 7.680001,0.685527 5.53486,-0.02343 9.84956,-0.570259 15.92,-2.017646 1.364,-0.325221 2.47098,-0.503115 2.45996,-0.395319 -0.011,0.107796 -5.15612,4.587992 -11.43356,9.955992 -6.27744,5.368 -25.240421,21.624341 -42.139962,36.125201 -16.899541,14.50087 -31.587611,27.10087 -32.640155,28 -1.35685,1.15909 -1.699337,1.35545 -1.176983,0.6748 z"
       id="path1-3"
       inkscape:label="lightning" /><path
       style="display:inline;fill:#000000"
       d="M 32.562293,127.1178 C 20.226692,114.33053 13.75095,94.785147 15.663042,76.111705 c 1.254409,-12.25052 5.73948,-23.789996 13.015409,-33.486877 2.508869,-3.343657 7.944174,-8.923737 11.268191,-11.568331 9.669685,-7.693221 21.261813,-12.550403 33.608672,-14.08227 4.496687,-0.557901 12.423718,-0.414399 17.288395,0.312969 5.276652,0.788967 10.917271,1.988298 10.901761,2.317977 -0.006,0.133745 -2.736929,2.910093 -6.068089,6.169662 l -6.056646,5.926488 -3.498957,-0.349797 c -6.123367,-0.612165 -14.25687,0.301489 -20.558069,2.309331 -17.756069,5.657875 -30.884321,20.468615 -34.626416,39.06406 -1.04714,5.203514 -1.045614,14.789469 0.0032,20.002409 1.966233,9.772944 6.089166,17.920124 12.579963,24.858804 l 1.847451,1.97493 -5.02573,5.01837 c -2.764152,2.7601 -5.107121,5.01837 -5.206599,5.01837 -0.09948,0 -1.257449,-1.116 -2.57327,-2.48 z"
       id="path3-6"
       inkscape:label="left_ring" /><path
       style="display:inline;fill:#000000"
       d="m 74.043709,148.3014 c -3.261256,-0.39632 -12.580319,-2.21726 -12.879756,-2.51669 -0.07238,-0.0724 2.636103,-2.84405 6.018853,-6.15926 l 6.150454,-6.02765 1.315225,0.16 c 3.288589,0.40006 12.886504,0.13659 16.035224,-0.44018 21.370521,-3.91459 37.737941,-20.3958 41.476071,-41.764422 0.89452,-5.113392 0.89401,-12.841889 -0.001,-17.981247 -1.6867,-9.68347 -5.77712,-18.122764 -12.28994,-25.356438 l -2.25293,-2.502287 5.08711,-5.094575 5.08711,-5.094574 1.71301,1.676862 c 3.92372,3.840903 8.24146,9.911145 11.09398,15.596861 4.68793,9.344105 6.88237,18.780702 6.8853,29.608394 0.002,8.390195 -0.89377,14.070787 -3.40533,21.588716 -6.47496,19.38165 -21.91989,34.81416 -41.32037,41.28715 -9.379209,3.12938 -19.258539,4.16826 -28.712821,3.01934 z"
       id="path2-7"
       inkscape:label="right_ring" /></g><path
     style="fill:#414042;stroke-width:0.439863"
     d="m 221.55384,655.72509 c 0.36259,-0.42337 6.16711,-6.90585 12.89893,-14.4055 30.3951,-33.86198 40.44899,-46.00753 49.70116,-60.04124 8.37981,-12.71053 12.53681,-22.36229 12.5309,-29.09442 -0.003,-3.45828 -0.53958,-5.46596 -1.98398,-7.42373 -5.24361,-7.10732 -19.52886,-7.73002 -45.04574,-1.96356 -3.73161,0.84329 -6.99594,1.53326 -7.25406,1.53326 -0.58821,0 15.66503,-16.34439 30.76786,-30.94042 15.00232,-14.49889 23.73849,-22.38866 58.04759,-52.42368 15.72508,-13.76612 35.87894,-31.43952 44.78634,-39.27422 8.9074,-7.83469 16.26433,-14.17584 16.34873,-14.09144 0.0844,0.0844 -4.21374,5.00271 -9.55142,10.92958 -23.94989,26.59354 -29.93711,33.4627 -37.87589,43.45523 -16.24612,20.44893 -25.86924,36.50881 -28.51954,47.59581 -1.16058,4.85509 -0.98492,10.78299 0.39755,13.4158 1.83061,3.48626 5.7939,6.30101 10.89532,7.73792 1.60505,0.45209 4.87352,0.61471 12.09622,0.60186 10.6176,-0.0189 14.15432,-0.37589 24.34111,-2.45704 3.58968,-0.73337 6.622,-1.23807 6.7385,-1.12157 0.30896,0.30895 -3.80356,3.8665 -75.06586,64.93587 -35.68385,30.57984 -66.98818,57.44506 -69.56518,59.70048 -4.35053,3.80764 -6.25643,5.1617 -4.68854,3.33101 z"
     id="path9"
     inkscape:label="das_eye_left" /><path
     style="fill:#414042;stroke-width:0.31103"
     d="m 629.74195,658.68333 c 0.25827,-0.29936 6.75359,-7.54247 14.43403,-16.09579 20.13208,-22.42006 28.00106,-31.45306 35.6299,-40.90042 12.97475,-16.06758 21.76476,-30.08583 25.23923,-40.25134 1.24356,-3.63834 1.28523,-3.88955 1.29423,-7.80276 0.009,-3.73405 -0.0537,-4.17778 -0.81429,-5.80007 -4.25108,-9.06732 -19.14997,-10.04939 -48.28226,-3.18256 -3.22999,0.76135 -5.92951,1.32747 -5.99893,1.25805 -0.18439,-0.18439 33.26422,-32.98259 41.53211,-40.7245 10.17414,-9.52691 17.63224,-16.20575 38.70849,-34.66404 30.12709,-26.3849 45.56116,-39.91813 59.09572,-51.81757 6.98208,-6.13856 12.75067,-11.10505 12.81908,-11.03664 0.14389,0.14389 -2.46186,3.08766 -16.1895,18.2896 -17.18187,19.02716 -24.58645,27.55232 -31.8773,36.70152 -15.96615,20.03571 -25.78662,36.10168 -28.80316,47.12101 -0.95676,3.49503 -1.299,8.63653 -0.75922,11.40578 0.97115,4.98228 4.56811,8.41141 11.05949,10.54344 1.99747,0.65605 2.85765,0.72565 10.41949,0.84307 11.35507,0.17632 17.48784,-0.44327 28.73375,-2.90294 2.73286,-0.59772 5.10154,-1.04253 5.26372,-0.98847 0.16219,0.0541 -0.94758,1.21283 -2.46616,2.57503 -4.69459,4.21117 -149.08386,127.9739 -149.30228,127.9739 -0.11315,0 0.006,-0.24493 0.26386,-0.5443 z"
     id="path10"
     inkscape:label="das_eye_right" /></svg>
