<?xml version="1.0" encoding="UTF-8" standalone="no"?>
<svg
   version="1.0"
   width="16"
   height="16"
   viewBox="0 0 16 16"
   preserveAspectRatio="xMidYMid"
   id="svg3"
   sodipodi:docname="DasScript.svg"
   inkscape:version="1.3 (0e150ed6c4, 2023-07-21)"
   xmlns:inkscape="http://www.inkscape.org/namespaces/inkscape"
   xmlns:sodipodi="http://sodipodi.sourceforge.net/DTD/sodipodi-0.dtd"
   xmlns="http://www.w3.org/2000/svg"
   xmlns:svg="http://www.w3.org/2000/svg">
  <defs
     id="defs3" />
  <sodipodi:namedview
     id="namedview3"
     pagecolor="#ffffff"
     bordercolor="#000000"
     borderopacity="0.25"
     inkscape:showpageshadow="2"
     inkscape:pageopacity="0.0"
     inkscape:pagecheckerboard="0"
     inkscape:deskcolor="#d1d1d1"
     inkscape:document-units="pt"
     inkscape:zoom="26.649087"
     inkscape:cx="10.488164"
     inkscape:cy="10.581976"
     inkscape:window-width="1920"
     inkscape:window-height="1008"
     inkscape:window-x="0"
     inkscape:window-y="0"
     inkscape:window-maximized="1"
     inkscape:current-layer="svg3" />
  <g
     transform="matrix(0.00346596,0,0,-0.00346589,-1.5243497,17.560401)"
     fill="#000000"
     stroke="none"
     id="g3"
     style="fill:#e0e0e0;fill-opacity:1"
     inkscape:transform-center-x="-1.1091653"
     inkscape:transform-center-y="0.22186217">
    <path
       d="m 4095,4818 c -137,-122 -572,-503 -965,-847 -627,-549 -766,-676 -1132,-1035 -230,-226 -416,-412 -414,-414 2,-2 28,4 57,12 30,9 117,29 194,45 360,76 590,65 682,-31 46,-50 57,-77 56,-149 -1,-180 -165,-476 -487,-874 C 1964,1374 1758,1139 1464,814 1318,654 1191,512 1183,499 l -16,-24 24,21 c 13,12 247,212 519,446 717,615 2042,1751 2137,1833 44,39 80,71 79,72 -1,1 -26,-4 -56,-12 -30,-8 -125,-27 -210,-42 -198,-35 -448,-39 -545,-10 -255,77 -270,295 -47,687 173,304 418,609 1013,1265 209,230 276,306 267,304 -2,0 -115,-100 -253,-221 z"
       id="path1"
       style="fill:#e0e0e0;fill-opacity:1" />
    <path
       d="M 2464,4805 C 2026,4741 1635,4549 1321,4246 1138,4068 1012,3896 905,3677 662,3179 624,2624 796,2100 c 95,-289 263,-568 453,-755 l 61,-60 159,159 160,159 -70,76 c -143,155 -267,371 -333,578 -65,209 -91,472 -67,683 86,735 639,1302 1376,1410 91,14 383,15 435,2 l 35,-8 197,190 c 108,105 194,194 190,197 -10,10 -300,66 -402,79 -115,14 -414,11 -526,-5 z"
       id="path2"
       style="fill:#e0e0e0;fill-opacity:1" />
    <path
       d="m 4046,4071 -159,-159 82,-93 c 286,-326 418,-725 390,-1179 -39,-638 -473,-1202 -1079,-1404 -170,-56 -284,-76 -480,-83 -111,-3 -196,-1 -234,6 l -59,11 -191,-187 C 2211,881 2124,794 2122,789 c -4,-9 137,-41 303,-70 418,-71 854,-8 1240,181 355,173 637,426 850,765 201,320 305,689 305,1087 0,259 -27,437 -101,663 -91,277 -267,571 -451,752 l -63,63 z"
       id="path3"
       style="fill:#e0e0e0;fill-opacity:1" />
  </g>
</svg>
