<?xml version="1.0" encoding="UTF-8" standalone="no"?>
<svg
   version="1.0"
   width="16"
   height="16"
   viewBox="0 0 16 16"
   preserveAspectRatio="xMidYMid"
   id="svg3"
   sodipodi:docname="DasScript.svg"
   inkscape:version="1.3.2 (091e20ef0f, 2023-11-25, custom)"
   xml:space="preserve"
   xmlns:inkscape="http://www.inkscape.org/namespaces/inkscape"
   xmlns:sodipodi="http://sodipodi.sourceforge.net/DTD/sodipodi-0.dtd"
   xmlns="http://www.w3.org/2000/svg"
   xmlns:svg="http://www.w3.org/2000/svg"><defs
     id="defs3" /><sodipodi:namedview
     id="namedview3"
     pagecolor="#ffffff"
     bordercolor="#000000"
     borderopacity="0.25"
     inkscape:showpageshadow="2"
     inkscape:pageopacity="0.0"
     inkscape:pagecheckerboard="0"
     inkscape:deskcolor="#d1d1d1"
     inkscape:document-units="pt"
     inkscape:zoom="45.254834"
     inkscape:cx="7.2478445"
     inkscape:cy="8.8388348"
     inkscape:window-width="3440"
     inkscape:window-height="1368"
     inkscape:window-x="0"
     inkscape:window-y="0"
     inkscape:window-maximized="1"
     inkscape:current-layer="svg3" /><g
     inkscape:label="DasLogo"
     id="g1"
     transform="matrix(0.10798125,0,0,0.10798125,-0.74586116,-0.91051539)"
     style="display:inline"><path
       style="fill:#e0e0e0;fill-opacity:1;stroke:none"
       d="m 31.27301,154.7178 c 0.405203,-0.528 4.452395,-5.064 8.993758,-10.08 15.022992,-16.59311 21.406225,-24.19102 26.670933,-31.74619 10.962348,-15.731631 11.558803,-23.964531 1.874212,-25.869858 -4.154997,-0.817445 -12.400651,0.07102 -21.148333,2.278726 -2.013071,0.50805 -3.699442,0.884416 -3.74749,0.836368 C 43.86804,90.088796 49.7631,84.220115 57.016219,77.095328 68.002264,66.303665 73.221882,61.500504 88.283709,48.322568 110.8672,28.563753 129.70468,12.045544 131.13424,10.747786 c 2.19385,-1.9915871 0.0614,0.500298 -8.49305,9.924614 -9.84741,10.848735 -14.04552,15.659273 -18.59623,21.309065 -8.880179,11.02493 -14.404928,19.763197 -16.603496,26.26108 -1.187659,3.510136 -1.272748,7.404159 -0.205494,9.404302 1.008063,1.889213 2.780465,3.223994 5.367739,4.042398 1.963242,0.621011 2.912122,0.705709 7.680001,0.685527 5.53486,-0.02343 9.84956,-0.570259 15.92,-2.017646 1.364,-0.325221 2.47098,-0.503115 2.45996,-0.395319 -0.011,0.107796 -5.15612,4.587992 -11.43356,9.955992 -6.27744,5.368 -25.240421,21.624341 -42.139962,36.125201 -16.899541,14.50087 -31.587611,27.10087 -32.640155,28 -1.35685,1.15909 -1.699337,1.35545 -1.176983,0.6748 z"
       id="path1-9"
       inkscape:label="lightning" /><path
       style="fill:#e0e0e0;fill-opacity:1;stroke:none"
       d="M 32.562293,127.1178 C 20.226692,114.33053 13.75095,94.785147 15.663042,76.111705 c 1.254409,-12.25052 5.73948,-23.789996 13.015409,-33.486877 2.508869,-3.343657 7.944174,-8.923737 11.268191,-11.568331 9.669685,-7.693221 21.261813,-12.550403 33.608672,-14.08227 4.496687,-0.557901 12.423718,-0.414399 17.288395,0.312969 5.276652,0.788967 10.917271,1.988298 10.901761,2.317977 -0.006,0.133745 -2.736929,2.910093 -6.068089,6.169662 l -6.056646,5.926488 -3.498957,-0.349797 c -6.123367,-0.612165 -14.25687,0.301489 -20.558069,2.309331 -17.756069,5.657875 -30.884321,20.468615 -34.626416,39.06406 -1.04714,5.203514 -1.045614,14.789469 0.0032,20.002409 1.966233,9.772944 6.089166,17.920124 12.579963,24.858804 l 1.847451,1.97493 -5.02573,5.01837 c -2.764152,2.7601 -5.107121,5.01837 -5.206599,5.01837 -0.09948,0 -1.257449,-1.116 -2.57327,-2.48 z"
       id="path3-1"
       inkscape:label="left_ring" /><path
       style="display:inline;fill:#e0e0e0;fill-opacity:1;stroke:none"
       d="m 74.043709,148.3014 c -3.261256,-0.39632 -12.580319,-2.21726 -12.879756,-2.51669 -0.07238,-0.0724 2.636103,-2.84405 6.018853,-6.15926 l 6.150454,-6.02765 1.315225,0.16 c 3.288589,0.40006 12.886504,0.13659 16.035224,-0.44018 21.370521,-3.91459 37.737941,-20.3958 41.476071,-41.764422 0.89452,-5.113392 0.89401,-12.841889 -0.001,-17.981247 -1.6867,-9.68347 -5.77712,-18.122764 -12.28994,-25.356438 l -2.25293,-2.502287 5.08711,-5.094575 5.08711,-5.094574 1.71301,1.676862 c 3.92372,3.840903 8.24146,9.911145 11.09398,15.596861 4.68793,9.344105 6.88237,18.780702 6.8853,29.608394 0.002,8.390195 -0.89377,14.070787 -3.40533,21.588716 -6.47496,19.38165 -21.91989,34.81416 -41.32037,41.28715 -9.379209,3.12938 -19.258539,4.16826 -28.712821,3.01934 z"
       id="path2-2"
       inkscape:label="right_ring" /></g></svg>
