<?xml version="1.0" encoding="UTF-8" standalone="no"?>
<svg
   height="128"
   width="128"
   version="1.1"
   id="svg7"
   sodipodi:docname="icon.svg"
   xml:space="preserve"
   inkscape:version="1.3.2 (091e20ef0f, 2023-11-25, custom)"
   xmlns:inkscape="http://www.inkscape.org/namespaces/inkscape"
   xmlns:sodipodi="http://sodipodi.sourceforge.net/DTD/sodipodi-0.dtd"
   xmlns="http://www.w3.org/2000/svg"
   xmlns:svg="http://www.w3.org/2000/svg"><defs
     id="defs7" /><sodipodi:namedview
     id="namedview7"
     pagecolor="#ffffff"
     bordercolor="#000000"
     borderopacity="0.25"
     inkscape:showpageshadow="2"
     inkscape:pageopacity="0.0"
     inkscape:pagecheckerboard="0"
     inkscape:deskcolor="#d1d1d1"
     inkscape:zoom="4.4415145"
     inkscape:cx="-95.237785"
     inkscape:cy="45.479982"
     inkscape:window-width="3440"
     inkscape:window-height="1368"
     inkscape:window-x="0"
     inkscape:window-y="0"
     inkscape:window-maximized="1"
     inkscape:current-layer="g7" /><rect
     x="2"
     y="2"
     width="124"
     height="124"
     rx="14"
     fill="#363d52"
     stroke="#212532"
     stroke-width="4"
     id="rect1" /><g
     transform="scale(.101) translate(122 122)"
     id="g7"><g
       fill="#fff"
       id="g4"><path
         d="M105 673v33q407 354 814 0v-33z"
         id="path1" /><path
         fill="#478cbf"
         d="m105 673 152 14q12 1 15 14l4 67 132 10 8-61q2-11 15-15h162q13 4 15 15l8 61 132-10 4-67q3-13 15-14l152-14V427q30-39 56-81-35-59-83-108-43 20-82 47-40-37-88-64 7-51 8-102-59-28-123-42-26 43-46 89-49-7-98 0-20-46-46-89-64 14-123 42 1 51 8 102-48 27-88 64-39-27-82-47-48 49-83 108 26 42 56 81zm0 33v39c0 276 813 276 813 0v-39l-134 12-5 69q-2 10-14 13l-162 11q-12 0-16-11l-10-65H447l-10 65q-4 11-16 11l-162-11q-12-3-14-13l-5-69z"
         id="path2" /><path
         d="M483 600c3 34 55 34 58 0v-86c-3-34-55-34-58 0z"
         id="path3" /><circle
         cx="725"
         cy="526"
         r="90"
         id="circle3" /><circle
         cx="299"
         cy="526"
         r="90"
         id="circle4" /></g><path
       style="fill:#414042;stroke-width:0.0562871"
       d="m 76.297174,78.58428 c 0,-0.02216 0.741553,-0.86877 1.647897,-1.881358 2.270868,-2.537067 2.972374,-3.360232 3.82927,-4.493368 0.850802,-1.125075 1.604693,-2.415478 1.870446,-3.201561 0.129349,-0.382607 0.169288,-0.974692 0.08332,-1.23518 -0.307085,-0.930474 -1.664949,-1.130536 -4.166281,-0.613843 -0.541764,0.11191 -1.048348,0.215626 -1.125742,0.230479 -0.104118,0.01998 0.09352,-0.210193 0.759876,-0.884971 1.430642,-1.448726 3.440737,-3.36793 4.81297,-4.595342 2.229523,-1.994226 9.12817,-8.022913 9.152642,-7.99844 0.01299,0.01299 -0.624729,0.74297 -1.417161,1.622171 -3.174219,3.521784 -4.685985,5.487866 -5.50828,7.163623 -0.362602,0.738948 -0.465258,1.03522 -0.539099,1.555867 -0.156881,1.106152 0.392226,1.733285 1.639573,1.872548 0.701737,0.07835 2.126372,-0.02135 3.063344,-0.214386 0.389538,-0.08025 0.736461,-0.136507 0.770942,-0.125013 0.03448,0.01149 -3.24101,2.853377 -7.278867,6.315295 -4.037857,3.46192 -7.398549,6.346007 -7.468204,6.409083 -0.06966,0.06308 -0.126646,0.09655 -0.126646,0.0744 z"
       id="path5"
       transform="matrix(9.9009901,0,0,9.9009901,-122,-122)" /><path
       style="fill:#414042;stroke-width:0.0562871"
       d="m 34.92615,78.190768 c 0,-0.02189 0.753608,-0.881161 1.674684,-1.909502 1.966708,-2.195742 2.693582,-3.039705 3.434787,-3.988083 1.066826,-1.365013 1.949295,-2.815152 2.238945,-3.6792 0.12871,-0.383954 0.168227,-0.975475 0.08252,-1.23518 -0.328183,-0.994404 -1.834201,-1.157241 -4.682871,-0.506332 -0.330561,0.07553 -0.634214,0.13733 -0.674785,0.13733 -0.16417,0 3.639505,-3.706665 5.638479,-5.494675 2.229523,-1.994226 9.12817,-8.022912 9.152642,-7.998439 0.01299,0.01299 -0.624728,0.74297 -1.417161,1.62217 -3.174218,3.521785 -4.685985,5.487866 -5.508279,7.163623 -0.362602,0.738949 -0.465259,1.03522 -0.5391,1.555867 -0.15688,1.106153 0.392226,1.733285 1.639573,1.872548 0.701737,0.07835 2.126372,-0.02135 3.063345,-0.214385 0.389537,-0.08025 0.736461,-0.136507 0.770941,-0.125013 0.03448,0.01149 -3.24101,2.853376 -7.278867,6.315295 -4.037857,3.461919 -7.398549,6.346006 -7.468204,6.409083 -0.06965,0.06308 -0.126646,0.09678 -0.126646,0.07489 z"
       id="path4"
       transform="matrix(9.9009901,0,0,9.9009901,-122,-122)" /><g
       fill="#414042"
       id="g6"><circle
         cx="307"
         cy="532"
         r="60"
         id="circle5"
         style="display:none" /><circle
         cx="717"
         cy="532"
         r="60"
         id="circle6"
         style="display:none"
         inkscape:label="circle6" /></g></g><g
     inkscape:label="DasLogo"
     id="g2"
     transform="matrix(0.17708516,0,0,0.17708516,70.375522,51.533677)"
     style="display:none"><path
       style="fill:#000000"
       d="m 31.27301,154.7178 c 0.405203,-0.528 4.452395,-5.064 8.993758,-10.08 15.022992,-16.59311 21.406225,-24.19102 26.670933,-31.74619 10.962348,-15.731631 11.558803,-23.964531 1.874212,-25.869858 -4.154997,-0.817445 -12.400651,0.07102 -21.148333,2.278726 -2.013071,0.50805 -3.699442,0.884416 -3.74749,0.836368 C 43.86804,90.088796 49.7631,84.220115 57.016219,77.095328 68.002264,66.303665 73.221882,61.500504 88.283709,48.322568 110.8672,28.563753 129.70468,12.045544 131.13424,10.747786 c 2.19385,-1.9915871 0.0614,0.500298 -8.49305,9.924614 -9.84741,10.848735 -14.04552,15.659273 -18.59623,21.309065 -8.880179,11.02493 -14.404928,19.763197 -16.603496,26.26108 -1.187659,3.510136 -1.272748,7.404159 -0.205494,9.404302 1.008063,1.889213 2.780465,3.223994 5.367739,4.042398 1.963242,0.621011 2.912122,0.705709 7.680001,0.685527 5.53486,-0.02343 9.84956,-0.570259 15.92,-2.017646 1.364,-0.325221 2.47098,-0.503115 2.45996,-0.395319 -0.011,0.107796 -5.15612,4.587992 -11.43356,9.955992 -6.27744,5.368 -25.240421,21.624341 -42.139962,36.125201 -16.899541,14.50087 -31.587611,27.10087 -32.640155,28 -1.35685,1.15909 -1.699337,1.35545 -1.176983,0.6748 z"
       id="path1-3-2"
       inkscape:label="lightning" /><path
       style="display:inline;fill:#000000"
       d="M 32.562293,127.1178 C 20.226692,114.33053 13.75095,94.785147 15.663042,76.111705 c 1.254409,-12.25052 5.73948,-23.789996 13.015409,-33.486877 2.508869,-3.343657 7.944174,-8.923737 11.268191,-11.568331 9.669685,-7.693221 21.261813,-12.550403 33.608672,-14.08227 4.496687,-0.557901 12.423718,-0.414399 17.288395,0.312969 5.276652,0.788967 10.917271,1.988298 10.901761,2.317977 -0.006,0.133745 -2.736929,2.910093 -6.068089,6.169662 l -6.056646,5.926488 -3.498957,-0.349797 c -6.123367,-0.612165 -14.25687,0.301489 -20.558069,2.309331 -17.756069,5.657875 -30.884321,20.468615 -34.626416,39.06406 -1.04714,5.203514 -1.045614,14.789469 0.0032,20.002409 1.966233,9.772944 6.089166,17.920124 12.579963,24.858804 l 1.847451,1.97493 -5.02573,5.01837 c -2.764152,2.7601 -5.107121,5.01837 -5.206599,5.01837 -0.09948,0 -1.257449,-1.116 -2.57327,-2.48 z"
       id="path3-6"
       inkscape:label="left_ring" /><path
       style="display:inline;fill:#000000"
       d="m 74.043709,148.3014 c -3.261256,-0.39632 -12.580319,-2.21726 -12.879756,-2.51669 -0.07238,-0.0724 2.636103,-2.84405 6.018853,-6.15926 l 6.150454,-6.02765 1.315225,0.16 c 3.288589,0.40006 12.886504,0.13659 16.035224,-0.44018 21.370521,-3.91459 37.737941,-20.3958 41.476071,-41.764422 0.89452,-5.113392 0.89401,-12.841889 -0.001,-17.981247 -1.6867,-9.68347 -5.77712,-18.122764 -12.28994,-25.356438 l -2.25293,-2.502287 5.08711,-5.094575 5.08711,-5.094574 1.71301,1.676862 c 3.92372,3.840903 8.24146,9.911145 11.09398,15.596861 4.68793,9.344105 6.88237,18.780702 6.8853,29.608394 0.002,8.390195 -0.89377,14.070787 -3.40533,21.588716 -6.47496,19.38165 -21.91989,34.81416 -41.32037,41.28715 -9.379209,3.12938 -19.258539,4.16826 -28.712821,3.01934 z"
       id="path2-7"
       inkscape:label="right_ring" /></g></svg>
